<svg xmlns="http://www.w3.org/2000/svg" viewBox="745 435 435 215" fill="#1A1612" role="img" aria-label="BMG - be marketing group"><path transform="matrix(1,0,0,-1,788.4117,560.955)" d="M0 0C5.575-5.575 12.265-8.251 20.515-8.251 28.766-8.251 35.456-5.575 40.808 0 46.16 5.574 48.836 12.711 48.836 20.961 48.836 29.212 46.16 36.124 40.808 41.699 35.456 47.274 28.766 50.173 20.515 50.173 12.265 50.173 5.575 47.274 0 41.699-5.575 36.124-8.251 29.212-8.251 20.961-8.251 12.711-5.575 5.574 0 0M-37.017 121.308H-7.805V70.019C0 75.594 9.366 78.493 20.292 78.493 51.065 79.162 78.27 51.957 77.825 20.961 78.27-10.035 51.065-37.24 20.292-36.571-10.704-37.24-37.686-10.035-37.017 20.961Z"/><path transform="matrix(1,0,0,-1,1045.7418,595.7423)" d="M0 0H-28.989V58.647C-28.989 76.487-35.679 84.961-50.173 84.961-64.445 84.961-71.358 76.487-71.358 58.647V0H-100.347V58.647C-100.347 76.487-107.037 84.961-121.531 84.961-135.802 84.961-142.715 76.487-142.715 58.647V0H-171.705V58.647C-171.705 94.549-151.635 113.28-121.531 113.28-106.591 113.28-93.88 107.929-85.852 97.894-77.825 107.929-65.114 113.28-50.173 113.28-20.07 113.28 0 94.549 0 58.647Z"/><path transform="matrix(1,0,0,-1,1131.588,519.2556)" d="M0 0C-5.352 5.574-12.042 8.474-20.292 8.474-28.543 8.474-35.233 5.574-40.808 0-46.383-5.575-49.058-12.488-49.058-20.738-49.058-28.989-46.383-36.125-40.808-41.699-35.233-47.274-28.543-49.951-20.292-49.951-12.042-49.951-5.352-47.274 0-41.699 5.352-36.125 8.028-28.989 8.028-20.738 8.028-12.488 5.352-5.575 0 0M-37.909-86.521C-32.334-90.981-26.982-92.765-20.515-92.765-5.129-92.765 7.359-84.514 7.359-71.135V-70.912C-1.338-75.818-10.481-78.27-20.515-78.27-51.511-78.94-78.716-51.734-78.047-20.738-78.716 10.258-51.511 37.463-20.515 36.794 10.481 37.463 37.686 10.258 37.017-20.738V-63.553C37.686-94.549 10.481-121.754-20.515-121.085-43.706-121.085-64.222-107.259-73.142-86.521Z"/><path transform="matrix(1,0,0,-1,763.6393,630.6043)" d="M0 0C3.052 0 5.425 2.441 5.425 5.527 5.425 8.612 3.052 11.054 0 11.054-3.052 11.054-5.425 8.612-5.425 5.527-5.425 2.441-3.052 0 0 0M-8.714 20.786H-5.358V11.834C-4.035 13.36-2.204 14.275 0 14.275 4.679 14.377 8.816 10.24 8.748 5.527 8.816 .814 4.679-3.323 0-3.221-4.713-3.323-8.816 .814-8.714 5.527Z"/><path transform="matrix(1,0,0,-1,787.8831,623.5854)" d="M0 0C-.644 2.34-2.679 4.035-5.086 4.035-7.663 4.035-9.596 2.407-10.24 0ZM3.561-1.187C3.561-1.763 3.526-2.272 3.459-2.712H-10.24C-9.969-5.256-7.9-7.019-5.188-7.019-3.526-7.019-2.17-6.442-1.119-5.324L2.848-5.357C1.356-8.307-1.695-10.24-5.086-10.24-9.867-10.342-13.902-6.239-13.8-1.526-13.902 3.187-9.901 7.358-5.188 7.256-.78 7.256 3.425 3.933 3.561-1.187"/><path transform="matrix(1,0,0,-1,833.3455,633.5543)" d="M0 0H-3.323V8.918C-3.323 12.309-4.747 14.004-7.358 14.004-9.935 14.004-11.393 12.309-11.393 8.918V0H-14.716V8.918C-14.716 12.309-16.14 14.004-18.751 14.004-21.328 14.004-22.786 12.309-22.786 8.918V0H-26.109V8.918C-26.109 14.377-23.193 17.225-18.751 17.225-16.208 17.225-14.139 16.14-13.054 14.072-11.969 16.14-9.901 17.225-7.358 17.225-2.916 17.225 0 14.377 0 8.918Z"/><path transform="matrix(1,0,0,-1,843.9929,619.5504)" d="M0 0C-3.086 0-5.459-2.441-5.459-5.527-5.459-8.612-3.052-11.054 0-11.054 3.052-11.054 5.391-8.612 5.391-5.527 5.391-2.441 3.086 0 0 0M-.034 3.221C4.679 3.323 8.782-.814 8.68-5.527V-14.004H5.357V-11.325C4.544-12.987 2.306-14.275-.034-14.275-4.747-14.377-8.884-10.24-8.782-5.527-8.884-.814-4.747 3.323-.034 3.221"/><path transform="matrix(1,0,0,-1,855.0464,624.70437)" d="M0 0C0 5.425 2.814 8.172 7.121 8.172H7.46V4.95H7.121C4.679 4.95 3.323 3.357 3.323 0V-8.85H0Z"/><path transform="matrix(1,0,0,-1,864.3374,609.8188)" d="M0 0H3.323V-13.224L9.935-6.782H14.174L7.663-13.258 15.292-23.736H11.597L5.391-15.36 3.323-17.361V-23.736H0Z"/><path transform="matrix(1,0,0,-1,892.2435,623.5854)" d="M0 0C-.644 2.34-2.679 4.035-5.086 4.035-7.663 4.035-9.596 2.407-10.24 0ZM3.56-1.187C3.56-1.763 3.526-2.272 3.459-2.712H-10.24C-9.969-5.256-7.901-7.019-5.188-7.019-3.526-7.019-2.17-6.442-1.119-5.324L2.848-5.357C1.356-8.307-1.696-10.24-5.086-10.24-9.867-10.342-13.902-6.239-13.8-1.526-13.902 3.187-9.901 7.358-5.188 7.256-.78 7.256 3.424 3.933 3.56-1.187"/><path transform="matrix(1,0,0,-1,902.3485,619.82168)" d="M0 0V-5.697C0-8.85 1.221-10.376 3.662-10.613V-13.834C-.576-13.665-3.289-10.986-3.323-5.73V0H-5.832V3.221H-3.323V9.291H0V3.221H3.662V0Z"/><path transform="matrix(1,0,0,-1,0,1080)" d="M907.977 463.4H911.3V446.44599H907.977ZM909.638 469.808C910.757 469.808 911.639 468.893 911.639 467.774 911.639 466.655 910.757 465.739 909.638 465.739 908.52 465.739 907.604 466.655 907.604 467.774 907.604 468.96 908.52 469.808 909.638 469.808"/><path transform="matrix(1,0,0,-1,928.9314,633.5543)" d="M0 0H-3.323V8.918C-3.323 12.309-4.781 14.004-7.46 14.004-10.138 14.004-11.597 12.309-11.597 8.918V0H-14.92V8.918C-14.92 14.445-11.97 17.225-7.46 17.225-2.95 17.225 0 14.445 0 8.918Z"/><path transform="matrix(1,0,0,-1,939.5788,619.5504)" d="M0 0C-3.086 0-5.459-2.441-5.459-5.527-5.459-8.612-3.052-11.054 0-11.054 3.052-11.054 5.391-8.612 5.391-5.527 5.391-2.441 3.086 0 0 0M-4.035-15.53C-2.984-16.886-1.628-17.564-.034-17.564 2.882-17.564 5.323-15.632 5.323-12.817V-12.037C3.967-13.427 2.034-14.275-.034-14.275-4.747-14.377-8.884-10.24-8.782-5.527-8.884-.814-4.747 3.323-.034 3.221 4.679 3.323 8.816-.814 8.714-5.527V-12.037C8.816-16.75 4.679-20.887-.034-20.786-3.56-20.786-6.68-18.683-8.036-15.53Z"/><path transform="matrix(1,0,0,-1,972.9066,619.5504)" d="M0 0C-3.086 0-5.459-2.441-5.459-5.527-5.459-8.612-3.052-11.054 0-11.054 3.052-11.054 5.391-8.612 5.391-5.527 5.391-2.441 3.086 0 0 0M-4.035-15.53C-2.984-16.886-1.628-17.564-.034-17.564 2.882-17.564 5.324-15.632 5.324-12.817V-12.037C3.967-13.427 2.034-14.275-.034-14.275-4.747-14.377-8.884-10.24-8.782-5.527-8.884-.814-4.747 3.323-.034 3.221 4.679 3.323 8.816-.814 8.714-5.527V-12.037C8.816-16.75 4.679-20.887-.034-20.786-3.56-20.786-6.68-18.683-8.036-15.53Z"/><path transform="matrix(1,0,0,-1,983.6554,624.70437)" d="M0 0C0 5.425 2.814 8.172 7.121 8.172H7.46V4.95H7.121C4.679 4.95 3.323 3.357 3.323 0V-8.85H0Z"/><path transform="matrix(1,0,0,-1,1000.7451,630.6043)" d="M0 0C3.052 0 5.391 2.441 5.391 5.527 5.391 8.612 3.086 11.054 0 11.054-3.086 11.054-5.459 8.612-5.459 5.527-5.459 2.441-3.052 0 0 0M-.034-3.221C-4.747-3.323-8.884 .814-8.782 5.527-8.884 10.24-4.747 14.377-.034 14.275 4.679 14.377 8.816 10.24 8.714 5.527 8.816 .814 4.679-3.323-.034-3.221"/><path transform="matrix(1,0,0,-1,1026.2439,616.6004)" d="M0 0V-8.918C0-14.445-2.95-17.225-7.46-17.225-11.97-17.225-14.92-14.445-14.92-8.918V0H-11.597V-8.918C-11.597-12.309-10.138-14.004-7.46-14.004-4.781-14.004-3.323-12.309-3.323-8.918V0Z"/><path transform="matrix(1,0,0,-1,1036.993,619.5504)" d="M0 0C-3.052 0-5.425-2.441-5.425-5.527-5.425-8.612-3.052-11.054 0-11.054 3.052-11.054 5.425-8.612 5.425-5.527 5.425-2.441 3.052 0 0 0M8.748-5.527C8.816-10.24 4.679-14.377 0-14.275-2.204-14.275-4.035-13.359-5.358-11.834V-20.786H-8.715V-5.527C-8.816-.814-4.713 3.323 0 3.221 4.679 3.323 8.816-.814 8.748-5.527"/></svg>